<?xml version="1.0" encoding="utf-8"?>
<svg enable-background="new 0 0 280 103" height="270px" width="270px" y="0px" x="0px" id="Layer_1" version="1.1" viewBox="0 0 270.358 267.333" xmlns="http://www.w3.org/2000/svg">
  <linearGradient gradientTransform="matrix(1.066418, 0, -0.006792, 1.081534, -441.423677, -625.272387)" y2="714.04132" x2="416.7337" y1="732.71002" x1="426.75101" gradientUnits="userSpaceOnUse" id="SVGID_1_">
    <stop id="stop12" style="stop-color:#0070B6" offset="0"/>
    <stop id="stop14" style="stop-color:#1D2C5E" offset="1"/>
  </linearGradient>
  <polygon style="fill: url(#SVGID_1_);" id="polygon16" points="-5.373 148.828 7.312 170.784 12.464 165.832 -1.362 144.722" transform="matrix(0.96509, -0.261918, 0.261918, 0.96509, -41.194571, 6.435765)"/>
  <polygon style="fill: rgb(0, 113, 185);" id="polygon18" points="171.892 84.243 171.377 87.138 177.524 85.131 176.781 81.584" transform="matrix(0.96509, -0.261918, 0.261918, 0.96509, -16.005619, 48.63675)"/>
  <linearGradient gradientTransform="matrix(1.066418, 0, -0.006792, 1.081534, -455.614962, -660.289113)" y2="680.94922" x2="561.64203" y1="694.57318" x1="548.92682" gradientUnits="userSpaceOnUse" id="SVGID_2_">
    <stop id="stop21" style="stop-color:#0070B6" offset="0"/>
    <stop id="stop23" style="stop-color:#1D2C5E" offset="1"/>
  </linearGradient>
  <polygon style="fill: url(#SVGID_2_);" id="polygon25" points="135.344 76.789 115.461 99.743 121.216 98.068 140.158 74.273" transform="matrix(0.96509, -0.261918, 0.261918, 0.96509, -18.327146, 36.513041)"/>
  <polygon style="fill: rgb(29, 44, 94);" id="polygon27" points="243.187 77.105 248.048 74.487 246.586 86.79" transform="matrix(0.96509, -0.261918, 0.261918, 0.96509, -12.546199, 67.146714)"/>
  <polygon style="fill: rgb(29, 44, 94);" id="polygon29" points="214.764 92.133 219.065 93.027 224.579 90.323 219.82 88.518" transform="matrix(0.96509, -0.261918, 0.261918, 0.96509, -16.106247, 60.704767)"/>
  <linearGradient gradientTransform="matrix(1.066418, 0, -0.006792, 1.081534, -447.733037, -644.729481)" y2="704.54773" x2="491.9368" y1="717.28607" x1="493.45309" gradientUnits="userSpaceOnUse" id="SVGID_3_">
    <stop id="stop32" style="stop-color:#0070B6" offset="0"/>
    <stop id="stop34" style="stop-color:#1D2C5E" offset="1"/>
  </linearGradient>
  <polygon style="fill: url(#SVGID_3_);" id="polygon36" points="70.069 118.56 70.668 132.818 76.693 130.356 74.985 115.894" transform="matrix(0.96509, -0.261918, 0.261918, 0.96509, -30.009348, 23.561052)"/>
  <linearGradient gradientTransform="matrix(1.066418, 0, -0.006792, 1.081534, -453.272158, -683.515001)" y2="703.336" x2="631.74219" y1="714.83398" x1="632.34772" gradientUnits="userSpaceOnUse" id="SVGID_4_">
    <stop id="stop39" style="stop-color:#125D9E" offset="0"/>
    <stop id="stop41" style="stop-color:#1D2C5E" offset="1"/>
  </linearGradient>
  <polygon style="fill: url(#SVGID_4_);" id="polygon43" points="217.691 75.524 212.838 78.173 212.923 92.844 217.807 90.313 219.381 83.212" transform="matrix(0.96509, -0.261918, 0.261918, 0.96509, -14.50495, 59.54181)"/>
  <polygon style="fill: rgb(49, 35, 112);" id="polygon45" points="225.324 92.537 219.695 140.524 228.221 138.822 230.196 89.95" transform="matrix(0.96509, -0.261918, 0.261918, 0.96509, -22.329824, 62.940175)"/>
  <polygon style="fill: rgb(33, 56, 110);" id="polygon47" points="243.129 138.264 243.24 144.772 259.553 150.056 264.435 147.441 248.475 134.839 232.238 133.391 227.39 135.965" transform="matrix(0.96509, -0.261918, 0.261918, 0.96509, -28.535161, 69.356448)"/>
  <polygon style="fill: rgb(33, 56, 110);" id="polygon49" points="180.444 141.493 184.476 139.297 187.006 144.095 190.805 141.986 191.519 148.31 215.258 152.585 220.021 149.935 187.379 129.685 164.109 133.727 159.546 138.096" transform="matrix(0.96509, -0.261918, 0.261918, 0.96509, -30.340477, 54.63471)"/>
  <linearGradient gradientTransform="matrix(1.066418, 0, -0.006792, 1.081534, -446.540619, -667.425526)" y2="719.48871" x2="576.56763" y1="698.26068" x1="589.91107" gradientUnits="userSpaceOnUse" id="SVGID_5_">
    <stop id="stop52" style="stop-color:#125D9E" offset="0"/>
    <stop id="stop54" style="stop-color:#1D2C5E" offset="1"/>
  </linearGradient>
  <polygon style="fill: url(#SVGID_5_);" id="polygon56" points="165.968 89.658 161.194 92.313 152.268 145.304 157.097 142.769 165.533 113.015" transform="matrix(0.96509, -0.261918, 0.261918, 0.96509, -25.215597, 45.777108)"/>
  <polygon style="fill: rgb(29, 44, 94);" id="polygon58" points="123.159 105.473 119.356 107.52 119.667 108.802 128.723 102.99 124.81 98.7 119.716 101.314" transform="matrix(0.96509, -0.261918, 0.261918, 0.96509, -22.844049, 36.110107)"/>
  <polygon style="fill: rgb(33, 56, 110);" id="polygon60" points="147.208 168.272 108.577 148.802 113.466 145.075 152.047 165.631" transform="matrix(0.96509, -0.261918, 0.261918, 0.96509, -36.48643, 39.600503)"/>
  <polygon style="fill: rgb(29, 44, 94);" id="polygon62" points="98.384 102.588 92.44 113.883 98.659 111.977 103.212 99.941" transform="matrix(0.96509, -0.261918, 0.261918, 0.96509, -24.587082, 29.354669)"/>
  <linearGradient gradientTransform="matrix(1.066418, 0, -0.006792, 1.081534, -435.665467, -643.164048)" y2="750.20251" x2="480.91931" y1="732.30957" x1="471.82129" gradientUnits="userSpaceOnUse" id="SVGID_6_">
    <stop id="stop65" style="stop-color:#105FA1" offset="0"/>
    <stop id="stop67" style="stop-color:#1D2C5E" offset="1"/>
  </linearGradient>
  <path style="fill: url(#SVGID_6_);" id="path69" d="M 60.612 157.828 L 55.635 161.278 C 55.635 161.278 56.651 166.884 57.983 170.783 C 59.32 174.698 62.546 177.842 62.546 177.842 C 64.616 179.908 67.161 181.412 70.004 182.255 C 75.475 183.854 81.666 182.811 86.999 179.378 C 88.392 178.486 90.286 177.061 91.451 175.934 C 86.212 179.147 60.612 157.828 60.612 157.828 Z" transform="matrix(0.96509, -0.261918, 0.261918, 0.96509, -42.065536, 25.21115)"/>
  <polygon style="fill: rgb(29, 44, 94);" id="polygon71" points="82.884 127.064 87.088 177.655 105.581 174.882 110.539 172.256 87.915 124.031 83.189 125.643 78.342 128.227" transform="matrix(0.96509, -0.261918, 0.261918, 0.96509, -36.211586, 30.001571)"/>
  <linearGradient gradientTransform="matrix(1.066418, 0, -0.006792, 1.081534, -434.047028, -633.876148)" y2="750.61151" x2="448.0217" y1="726.20209" x1="437.49219" gradientUnits="userSpaceOnUse" id="SVGID_7_">
    <stop id="stop74" style="stop-color:#105FA1" offset="0"/>
    <stop id="stop76" style="stop-color:#1D2C5E" offset="1"/>
  </linearGradient>
  <polygon style="fill: url(#SVGID_7_);" id="polygon78" points="19.527 160.082 39.87 207.559 59.521 201.144 64.33 197.879 23.898 154.688 18.786 157.784 14.69 162.182" transform="matrix(0.96509, -0.261918, 0.261918, 0.96509, -46.060211, 16.671375)"/>
  <path style="fill: rgb(29, 44, 94);" id="path80" d="M 217.669 132.504 L 217.931 134.835 C 219.622 134.643 221.398 134.421 222.92 133.873 C 224.694 133.259 228.551 131.522 230.021 130.242 C 229.47 130.445 220.447 132.813 217.669 132.504" transform="matrix(0.96509, -0.261918, 0.261918, 0.96509, -26.899818, 63.255927)"/>
  <path style="fill: rgb(29, 44, 94);" id="path82" d="M 147.486 138.406 L 148.199 142.159 C 152.171 141.559 155.588 140.07 158.951 138.028 C 161.062 136.759 163.38 134.844 164.111 134.334 C 163.595 134.666 147.486 138.406 147.486 138.406 Z" transform="matrix(0.96509, -0.261918, 0.261918, 0.96509, -30.770338, 45.632589)"/>
  <g transform="matrix(1.029188, -0.279314, 0.276718, 1.045556, -23.59358, 113.012497)" id="g84" style="">
    <path style="fill:#ffcb05" id="path86" d="M 46.389,96.338 44.952,93.145 26.6,52.186 l -0.377,-0.84 -0.834,0.385 -0.557,0.256 -3.267,1.604 C 21.083,52.783 20.283,51.429 19.727,50.49 L 12.34,38.006 10.408,34.747 13.604,32.722 c 3.023,-1.928 6.437,-3.709 10.151,-5.295 7.395,-3.15 14.943,-4.816 21.826,-4.816 2.264,0 4.455,0.183 6.513,0.541 3.431,0.391 6.604,1.517 9.225,3.263 3.906,2.184 6.981,5.572 8.718,9.58 1.426,3.294 1.704,7.152 0.798,11.154 l -0.532,2.351 1.953,-1.416 c 1.316,-0.955 2.746,-1.771 4.25,-2.426 2.6,-1.099 5.29,-1.66 7.985,-1.66 2.551,0 4.963,0.505 7.17,1.498 l 1.423,0.638 -0.143,-1.553 -0.619,-6.711 -0.1,-1.064 -1.036,0.269 -3.109,0.806 -0.545,-11.427 22.774,-7.276 -0.184,8.881 1.715,0.44 4.974,-9.532 14.897,13.212 0.621,0.553 0.606,-0.57 c 2.041,-1.918 4.46,-3.457 7.189,-4.574 l 1.14,-0.466 -0.781,-0.953 -2.686,-3.274 17.103,-19.714 8.957,13.365 -13.711,7.37 -3.045,1.638 3.457,0.073 c 6.5,0.137 12.256,2.887 16.205,7.742 l 1.428,1.761 0.92,1.131 -1.528,1.622 -1.019,1.082 -3.426,3.654 -0.637,0.679 0.689,0.622 3.211,2.891 1.242,1.117 0.266,-1.648 1.232,-7.627 0.315,-1.958 0.01,0.011 0.324,-2 1.839,-11.26 16.418,0 0.77,0 0.13,-0.759 0.321,-1.928 14.785,0 3.582,22.621 0.233,1.465 1.2,-0.871 c 1.451,-1.054 3.054,-1.921 4.766,-2.576 2.279,-0.86 4.625,-1.299 6.967,-1.299 2.788,0 5.495,0.644 7.836,1.861 0.062,0.045 0.15,0.103 0.27,0.151 l 1.111,0.446 0.131,-1.192 0.268,-2.465 0.088,-0.808 -0.795,-0.177 -2.998,-0.67 -0.146,-11.792 22.857,5.031 1.717,8.485 1.775,0.035 1.771,-7.302 19.06,4.635 -19.478,58.703 -13.938,-4.377 -0.099,-5.407 -0.014,-0.775 -0.769,-0.108 -13.908,-1.963 0.787,-7.069 0.187,-1.682 -1.505,0.771 c -0.713,0.363 -1.403,0.668 -2.055,0.908 -2.274,0.86 -4.603,1.295 -6.922,1.295 -0.671,0 -1.345,-0.037 -2.001,-0.111 l -1.188,-0.133 0.186,1.18 0.979,6.217 -20.291,-3.579 -1.063,-9.226 -0.342,-2.957 -1.367,2.643 -2.336,4.505 -4.301,-7.94 -1.293,-2.385 -0.408,2.68 -0.937,6.146 -17.784,-2.799 1.379,-8.435 0.315,-1.934 -1.681,1.005 c -2.911,1.745 -6.254,3.058 -10.217,4.015 -1.385,0.338 -2.832,0.572 -4.305,0.694 l -0.834,0.07 0,0.837 0,15.918 -35.023,-17.309 -1.316,-0.649 0.001,1.467 0.024,14.804 -15.659,2.307 -0.658,-7.109 -0.178,-1.902 -1.365,1.338 c -2.069,2.025 -4.4,3.595 -6.927,4.667 -2.585,1.099 -5.252,1.655 -7.925,1.655 -2.669,0 -5.177,-0.558 -7.455,-1.649 -4.22,-2.03 -7.264,-5.713 -8.57,-10.36 C 62.87,68.121 62.701,65.816 62.99,63.45 l 0.309,-2.52 -1.838,1.75 c -1.296,1.23 -2.692,2.405 -4.152,3.484 l -0.495,0.365 0.156,0.595 5.275,20.248 0.932,3.593 -3.532,1.123 -9.932,3.18 -3.324,1.07 0,0 z m 4.458,-54.356 c -0.512,0 -1.041,0.047 -1.574,0.143 l -0.676,0.13 -0.998,0.192 0.301,0.972 0.196,0.632 2.84,9.293 0.284,0.893 0.422,1.34 1.05,-0.934 0.697,-0.621 c 2.753,-2.474 3.718,-4.986 3.137,-8.154 -0.366,-1.901 -1.838,-2.848 -2.684,-3.244 -0.884,-0.426 -1.896,-0.642 -2.995,-0.642 l 0,0 z m 76.135,0.305 -1.775,1.728 -4.675,4.543 -1.018,0.989 1.325,0.512 5.014,1.935 1.54,0.593 -0.318,-1.618 c -0.414,-2.09 -0.522,-4.182 -0.328,-6.217 l 0.235,-2.465 0,0 z m 20.416,-5.167 c -1.939,0 -3.815,0.834 -5.148,2.286 -2.022,2.208 -2.415,5.465 -0.977,8.103 l 0.381,0.715 0.613,1.143 0.863,-0.966 0.555,-0.615 6.858,-7.83 0.539,-0.62 0.865,-0.994 -1.234,-0.457 -0.769,-0.284 c -0.807,-0.316 -1.671,-0.481 -2.546,-0.481 l 0,0 z"/>
  </g>
  <path style="fill: rgb(125, 127, 104);" id="path88" d="M 152.416 119.866 C 152.346 119.93 152.281 120.01 152.224 120.093 C 152.299 120.024 152.37 119.965 152.447 119.902 L 152.416 119.866 Z" transform="matrix(0.96509, -0.261918, 0.261918, 0.96509, -26.106775, 44.087872)"/>
  <polygon style="fill: rgb(125, 127, 104);" id="polygon90" points="157.128 112.271 160.806 108.319 159.548 109.665 159.584 109.494 158.474 110.677 154.798 114.617 158.198 117.735 158.842 113.851 160.535 115.396" transform="matrix(0.96509, -0.261918, 0.261918, 0.96509, -24.094956, 45.276935)"/>
  <polygon style="fill: rgb(125, 127, 104);" id="polygon92" points="156.613 111.884 160.019 115.011 161.383 106.762 160.29 107.931" transform="matrix(0.96509, -0.261918, 0.261918, 0.96509, -23.492569, 45.515464)"/>
  <path style="fill: rgb(125, 127, 104);" id="path94" d="M 114.727 130.611 L 114.782 130.636 L 114.727 130.611 Z" transform="matrix(0.96509, -0.261918, 0.261918, 0.96509, -30.206577, 34.616312)"/>
  <path style="fill: rgb(199, 160, 8);" id="path96" d="M 133.128 128.932 C 133.42 129.231 133.151 129.017 133.477 129.244 L 135.72 127.647 C 135.391 127.41 135.063 127.153 134.764 126.867 C 131.541 123.872 132.426 117.135 134.552 113.446 C 128.988 117.976 129.232 124.948 133.128 128.932" transform="matrix(0.96509, -0.261918, 0.261918, 0.96509, -27.139448, 39.071048)"/>
  <path style="fill: rgb(199, 160, 8);" id="path98" d="M 161.297 130.577 C 157.588 133.672 153.368 135.691 147.803 137.053 C 146.587 137.335 145.395 137.541 144.231 137.644 C 135.406 138.525 128.031 134.416 125.265 127.753 C 124.919 126.946 124.654 126.13 124.458 125.259 C 123.192 119.648 124.334 114.633 127.092 110.703 C 127.366 110.322 127.652 109.958 127.954 109.588 C 127.812 109.709 127.668 109.811 127.553 109.926 C 126.496 110.874 125.559 111.913 124.762 113.049 C 122.002 116.979 120.859 121.997 122.136 127.598 C 122.331 128.47 122.592 129.3 122.929 130.088 C 125.696 136.765 133.072 140.871 141.89 139.996 C 143.065 139.884 144.252 139.685 145.47 139.389 C 151.041 138.028 155.258 136.017 158.966 132.921 C 159.872 132.17 160.747 131.35 161.596 130.453 L 161.518 130.378 C 161.435 130.451 161.369 130.516 161.297 130.577" transform="matrix(0.96509, -0.261918, 0.261918, 0.96509, -27.757161, 41.447509)"/>
  <polygon style="fill: rgb(199, 160, 8);" id="polygon100" points="95.721 124.062 105.663 110.018 105.265 109.643 95.673 123.187" transform="matrix(0.96509, -0.261918, 0.261918, 0.96509, -27.091462, 30.446061)"/>
  <polygon style="fill: rgb(199, 160, 8);" id="polygon102" points="161.73 107.028 160.365 115.275 158.673 113.73 158.029 117.614 154.629 114.494 158.304 110.555 159.416 109.372 159.379 109.542 160.638 108.198" transform="matrix(0.96509, -0.261918, 0.261918, 0.96509, -23.896863, 45.351161)"/>
  <polygon style="fill: rgb(199, 160, 8);" id="polygon104" points="141.297 87.458 144.756 85.957 138.5 77.748 136.414 80.676" transform="matrix(0.96509, -0.261918, 0.261918, 0.96509, -16.727407, 39.705395)"/>
  <path style="fill: rgb(199, 160, 8);" id="path106" d="M 58.488 138.526 C 42.684 118.847 13.916 129.424 3.542 138.628 L 3.942 139.336 C 6.323 137.956 8.83 136.707 11.467 135.588 C 21.741 131.149 31.519 129.847 39.341 131.238 C 42.108 131.56 45.036 132.394 47.577 134.126 C 51.097 136.132 53.757 138.986 55.299 142.643 C 58.035 149.123 55.535 157.736 48.947 164.948 C 57.202 157.312 62.862 150.005 58.488 138.526 Z" transform="matrix(0.96509, -0.261918, 0.261918, 0.96509, -37.176041, 13.425085)"/>
  <path style="fill: rgb(199, 160, 8);" id="path108" d="M 94.223 149.046 C 94.149 148.689 94.078 148.326 93.964 147.976 C 93.088 144.705 91.179 142.092 88.662 140.355 C 84.592 137.539 78.888 136.96 73.184 139.396 C 70.185 140.708 67.569 142.728 65.496 145.139 C 67.086 143.759 68.901 142.609 70.86 141.753 C 76.55 139.309 82.255 139.887 86.339 142.7 C 88.856 144.441 90.75 147.051 91.645 150.318 C 91.744 150.669 91.821 151.036 91.898 151.405 C 92.133 152.649 92.238 153.907 92.183 155.195 C 92.041 158.961 90.64 162.753 88.331 165.991 C 87.958 166.503 87.567 166.982 87.162 167.456 C 88.473 166.314 89.644 165.052 90.647 163.639 C 92.965 160.421 94.362 156.621 94.508 152.833 C 94.568 151.568 94.473 150.291 94.223 149.046" transform="matrix(0.96509, -0.261918, 0.261918, 0.96509, -37.191242, 26.285583)"/>
  <path style="fill: rgb(199, 160, 8);" id="path110" d="M 76.167 144.895 C 76.144 144.932 78.493 142.552 78.466 142.552 C 75.547 142.439 74.296 145.231 74.194 145.448 C 74.795 145.156 75.456 144.964 76.167 144.895" transform="matrix(0.96509, -0.261918, 0.261918, 0.96509, -35.051075, 25.01919)"/>
  <path style="fill: rgb(199, 160, 8);" id="path112" d="M 82.616 146.438 C 82.731 146.84 82.79 147.239 82.787 147.675 C 82.783 148.292 82.644 148.883 82.395 149.43 C 82.863 149.181 86.249 147.52 84.962 144.003 C 85.032 144.112 82.532 146.428 82.616 146.438" transform="matrix(0.96509, -0.261918, 0.261918, 0.96509, -35.50142, 27.076733)"/>
  <path style="fill: rgb(199, 160, 8);" id="path114" d="M 70.622 150.369 C 70.631 148.922 73.095 145.411 73.863 144.239 C 69.991 146.728 68.309 150.085 68.292 152.729 C 68.264 157.26 72.165 160.903 76.859 160.903 C 79.08 160.903 83.152 159.713 85.838 155.348 C 84.441 156.278 80.883 158.503 79.025 158.503 C 74.332 158.502 70.593 154.925 70.622 150.369" transform="matrix(0.96509, -0.261918, 0.261918, 0.96509, -37.27076, 25.510919)"/>
  <polygon style="fill: rgb(199, 160, 8);" id="polygon116" points="105.265 146.843 105.212 165.181 108.081 165.347 107.646 144.443" transform="matrix(0.96509, -0.261918, 0.261918, 0.96509, -36.846768, 33.339996)"/>
  <polygon style="fill: rgb(199, 160, 8);" id="polygon118" points="79.304 115.685 79.353 117.313 92.978 113.207 93.875 130.771 96.165 127.546 95.792 109.921" transform="matrix(0.96509, -0.261918, 0.261918, 0.96509, -28.457979, 27.180503)"/>
  <polygon style="fill: rgb(199, 160, 8);" id="polygon120" points="118.65 115.403 105.95 103.513 104.401 106.954 115.575 117.665" transform="matrix(0.96509, -0.261918, 0.261918, 0.96509, -25.071906, 33.071178)"/>
  <path style="fill: rgb(199, 160, 8);" id="path122" d="M 125.864 134.781 L 110.898 129.75 L 108.698 132.091 L 123.601 138.156 C 125.273 141.393 127.826 144.167 131.046 146.197 C 134.165 148.138 137.735 149.3 141.519 149.669 L 141.473 157.153 L 143.782 158.326 L 144.584 147.082 L 125.864 134.781 Z" transform="matrix(0.96509, -0.261918, 0.261918, 0.96509, -33.30512, 38.197898)"/>
  <path style="fill: rgb(199, 160, 8);" id="path124" d="M 145.514 126.549 C 149.204 125.648 151.34 123.7 153.182 121.554 C 151.804 122.697 144.914 124.217 143.754 124.615 L 141.473 127.061 C 142.508 127.155 144.242 126.872 145.514 126.549" transform="matrix(0.96509, -0.261918, 0.261918, 0.96509, -27.41758, 42.927597)"/>
  <path style="fill: rgb(199, 160, 8);" id="path126" d="M 133.995 102.17 C 127.197 103.071 123.622 108.855 123.031 109.557 C 125.554 107.41 128.707 105.814 132.253 104.964 C 140.671 102.903 148.063 105.502 152.608 111.244 L 155.458 108.811 C 150.957 103.167 142.411 100.115 133.995 102.17" transform="matrix(0.96509, -0.261918, 0.261918, 0.96509, -23.003352, 40.184548)"/>
  <path style="fill: rgb(199, 160, 8);" id="path128" d="M 160.991 125.823 C 161.815 125.124 163.274 124.419 164.054 123.596 L 155.011 115.354 C 154.31 116.199 153.669 117.591 152.815 118.323 L 160.991 125.823 Z" transform="matrix(0.96509, -0.261918, 0.261918, 0.96509, -26.053367, 45.706569)"/>
  <path style="fill: rgb(199, 160, 8);" id="path130" d="M 206.205 137.333 C 196.713 129.379 197.391 112.326 202.108 106.913 L 198.072 80.185 L 188.871 81.388 L 188.446 83.742 L 195.403 83.742 L 198.935 107.995 C 194.214 113.423 191.902 120.695 193.429 127.352 C 194.609 132.497 197.698 136.662 202.168 139.07 C 202.616 139.32 203.082 139.54 203.558 139.746 L 203.615 140.103 L 206.348 140.539 C 206.348 140.538 206.652 137.565 206.205 137.333 Z" transform="matrix(0.96509, -0.261918, 0.261918, 0.96509, -22.012926, 55.567763)"/>
  <polygon style="fill: rgb(199, 160, 8);" id="polygon132" points="166.126 89.97 165.714 92.326 176.201 92.326 179.182 109.501 181.524 107.118 179.191 88.986" transform="matrix(0.96509, -0.261918, 0.261918, 0.96509, -19.93264, 48.938512)"/>
  <polygon style="fill: rgb(199, 160, 8);" id="polygon134" points="190.997 119.786 187.556 128.656 188.379 130.963 193.307 117.455" transform="matrix(0.96509, -0.261918, 0.261918, 0.96509, -25.884631, 54.21355)"/>
  <polygon style="fill: rgb(199, 160, 8);" id="polygon136" points="181.299 117.334 178.952 119.695 176.353 135.717 178.739 136.645" transform="matrix(0.96509, -0.261918, 0.261918, 0.96509, -27.018041, 51.270926)"/>
  <path style="fill: rgb(199, 160, 8);" id="path138" d="M 225.359 100.962 C 226.724 101.955 227.888 103.214 228.759 104.711 C 229.447 105.858 229.965 107.142 230.292 108.553 C 231.405 113.368 230.004 118.577 226.96 122.757 C 226.652 123.18 226.315 123.589 225.993 123.992 C 227.228 122.922 242.192 111.779 227.731 97.143 C 211.757 91.792 205.632 102.384 205.06 103.056 C 206.762 101.597 208.72 100.392 210.84 99.573 C 216.27 97.491 221.594 98.212 225.359 100.962" transform="matrix(0.96509, -0.261918, 0.261918, 0.96509, -21.099047, 61.330966)"/>
  <path style="fill: rgb(199, 160, 8);" id="path140" d="M 215.067 102.877 C 215.113 102.98 217.38 100.495 217.428 100.495 C 214.577 100.614 213.202 102.009 213.338 102.653 C 213.165 102.902 213.025 103.149 212.914 103.424 C 213.526 103.117 214.65 102.88 215.067 102.877" transform="matrix(0.96509, -0.261918, 0.261918, 0.96509, -19.193436, 59.916541)"/>
  <path style="fill: rgb(199, 160, 8);" id="path142" d="M 221.419 104.66 C 221.518 105.047 221.565 105.451 221.554 105.887 C 221.525 106.445 221.38 106.957 221.168 107.434 C 221.601 107.235 225.061 106.149 223.766 102.298 C 223.799 102.405 221.382 104.662 221.419 104.66" transform="matrix(0.96509, -0.261918, 0.261918, 0.96509, -19.694962, 61.966736)"/>
  <path style="fill: rgb(199, 160, 8);" id="path144" d="M 215.095 118.906 C 218.317 119.045 221.891 117.039 224.469 113.49 C 217.905 114.853 211.081 103.782 211.78 102.697 C 209.291 104.519 207.075 108.031 206.959 110.487 C 206.761 115.038 210.392 118.716 215.095 118.906" transform="matrix(0.96509, -0.261918, 0.261918, 0.96509, -21.491379, 60.366542)"/>
  <polygon style="fill: rgb(199, 160, 8);" id="polygon146" points="251.308 135.577 252.838 136.62 271.953 79.532 257.936 76.242 257.74 79.587 269.048 82.134" transform="matrix(0.96509, -0.261918, 0.261918, 0.96509, -18.742706, 72.241218)"/>
  <polygon style="fill: rgb(199, 160, 8);" id="polygon148" points="225.089 76.23 225.193 79.418 240.098 82.458 245.67 110.095 248.01 107.718 242.712 79.797" transform="matrix(0.96509, -0.261918, 0.261918, 0.96509, -16.143023, 65.208852)"/>
  <polygon style="fill: rgb(199, 160, 8);" id="polygon150" points="243.113 107.123 238.855 130.693 241.217 131.47 245.463 104.803" transform="matrix(0.96509, -0.261918, 0.261918, 0.96509, -22.488335, 67.549919)"/>
  <polygon style="fill: rgb(199, 160, 8);" id="polygon152" points="58.418 190.795 51.599 165.127 49.032 166.94 55.348 191.53" transform="matrix(0.96509, -0.261918, 0.261918, 0.96509, -44.831905, 20.296965)"/>
  <path style="fill: rgb(199, 160, 8);" id="path154" d="M 49.665 154.259 C 48.042 155.992 44.451 159.359 42.411 160.686 L 41.201 156.666 L 38.552 147.849 L 36.871 141.88 L 35.178 144.064 L 36.854 150.041 L 39.503 158.851 L 40.707 162.885 C 43.503 161.066 47.575 157.65 49.665 154.259" transform="matrix(0.96509, -0.261918, 0.261918, 0.96509, -38.430785, 16.430605)"/>
  <path style="fill: rgb(125, 127, 104);" id="path156" d="M 141.988 112.766 C 139.793 111.907 136.668 112.165 134.972 114.036 C 134.579 114.47 133.81 115.575 133.566 116.069 C 135.205 114.754 138.111 114.471 140.011 115.166 L 141.988 112.766 Z" transform="matrix(0.96509, -0.261918, 0.261918, 0.96509, -25.096627, 40.07236)"/>
  <path style="fill: rgb(125, 127, 104);" id="path158" d="M 46.718 146.634 C 46.479 145.314 45.21 144.265 44.587 143.976 C 43.472 143.428 41.542 143.343 40.127 143.603 C 40.376 144.492 40.66 145.534 40.781 145.961 C 41.353 146.043 42.293 146.216 42.785 146.444 C 43.403 146.747 44.482 147.46 44.725 148.788 C 45.052 150.562 44.952 152.219 44.216 153.564 C 46.226 151.575 47.208 149.415 46.718 146.634" transform="matrix(0.96509, -0.261918, 0.261918, 0.96509, -37.380151, 16.573996)"/>
  <g transform="matrix(1.029188, -0.279314, 0.276718, 1.045556, -23.59358, 113.012497)" id="g160" style="">
    <g id="g162">
      <path style="fill:#3c5aa6" id="path164" d="M 58.588,46.145 C 57.689,41.321 51.381,38.662 45.127,42.073 l 1.612,5.521 2.536,8.159 1.157,3.716 c 4.692,-3.017 9.408,-6.642 8.156,-13.324 z m -6.212,7.418 c -0.683,-2.229 -2.181,-7.042 -2.181,-7.042 0.007,0.022 -0.295,-1.03 -0.653,-2.234 1.326,-0.237 2.6,-0.141 3.648,0.363 0.586,0.279 1.616,0.93 1.841,2.164 0.518,2.774 -0.417,4.754 -2.655,6.749 z"/>
    </g>
  </g>
  <g transform="matrix(1.029188, -0.279314, 0.276718, 1.045556, -23.59358, 113.012497)" id="g166" style="">
    <g id="g168">
      <path style="fill:#3567b0" id="path170" d="m 153.223,38.491 c -3.496,-3.207 -8.93,-2.958 -12.119,0.535 -3.208,3.487 -2.956,8.924 0.545,12.118 0.285,0.275 0.593,0.5 0.903,0.721 l 11.277,-12.771 c -0.199,-0.208 -0.399,-0.415 -0.606,-0.603 z m -10.648,8.983 c -1.103,-2.025 -0.88,-4.596 0.769,-6.398 1.586,-1.728 4.016,-2.22 6.088,-1.421 l -6.857,7.819 z"/>
    </g>
  </g>
  <polygon style="fill: rgb(30, 45, 95);" id="polygon172" points="161.593 105.454 154.892 111.961 161.183 117.724" transform="matrix(0.96509, -0.261918, 0.261918, 0.96509, -23.70294, 45.342109)"/>
  <path style="fill: rgb(52, 102, 175);" id="path174" d="M 224.384 103.853 C 224.482 104.262 224.532 104.668 224.517 105.1 C 224.389 107.68 221.985 109.673 219.134 109.537 C 216.285 109.438 214.061 107.244 214.189 104.67 C 214.301 102.257 216.433 100.347 219.05 100.226 C 218.555 100.111 218.035 100.052 217.495 100.032 C 212.725 99.824 208.805 103.25 208.613 107.515 C 208.402 112.078 211.984 115.798 216.677 116.003 C 221.453 116.197 225.371 112.76 225.59 108.219 C 225.654 106.646 225.205 105.135 224.384 103.853" transform="matrix(0.96509, -0.261918, 0.261918, 0.96509, -20.712636, 60.633266)"/>
  <linearGradient gradientTransform="matrix(1.066418, 0, 0.006792, -1.081534, -605.505547, -912.854011)" y2="-982.76947" x2="655.63483" y1="-982.76947" x1="639.70612" gradientUnits="userSpaceOnUse" id="SVGID_8_">
    <stop id="stop177" style="stop-color:#3C5AA6" offset="0"/>
    <stop id="stop179" style="stop-color:#2B73B9" offset="0.9331"/>
    <stop id="stop181" style="stop-color:#2A75BB" offset="1"/>
  </linearGradient>
  <path style="fill: url(#SVGID_8_);" id="path183" d="M 85.811 146.829 C 85.795 149.422 83.458 151.497 80.613 151.497 C 77.759 151.497 75.457 149.421 75.473 146.829 C 75.489 144.415 77.537 142.424 80.15 142.193 C 79.65 142.101 79.13 142.048 78.593 142.048 C 73.823 142.048 70.038 145.635 70.012 149.907 C 69.984 154.466 73.724 158.041 78.415 158.041 C 83.188 158.041 86.97 154.464 86.998 149.907 C 87.008 148.329 86.503 146.842 85.627 145.619 C 85.744 145.986 85.813 146.396 85.811 146.829" transform="matrix(0.96509, -0.261918, 0.261918, 0.96509, -36.558752, 25.799901)"/>
  <g transform="matrix(1.029188, -0.279314, 0.276718, 1.045556, -23.59358, 113.012497)" id="g185" style="">
    <g id="g187">
      <linearGradient gradientTransform="matrix(1,0,0,-1,-564,-925)" y2="-974.57031" x2="838.9209" y1="-974.57031" x1="573.17767" gradientUnits="userSpaceOnUse" id="SVGID_9_">
        <stop id="stop190" style="stop-color:#3C5AA6" offset="0"/>
        <stop id="stop192" style="stop-color:#2B73B9" offset="0.9331"/>
        <stop id="stop194" style="stop-color:#2A75BB" offset="1"/>
      </linearGradient>
      <path style="fill:url(#SVGID_9_)" id="path196" d="m 254.02,30.598 -1.986,8.185 -1.834,-9.063 -24.559,-5.406 0.172,13.656 3.701,0.83 -0.267,2.463 c -0.048,-0.019 -0.078,-0.048 -0.104,-0.069 -4.588,-2.421 -10.276,-2.669 -15.629,-0.647 -1.796,0.687 -3.463,1.59 -4.975,2.688 l -3.705,-23.388 -16.333,0 -0.45,2.689 -17.191,0 -1.963,12.023 -1.426,-1.761 c -4.166,-5.118 -10.205,-7.937 -16.895,-8.077 l 14.596,-7.845 -10.178,-15.189 -18.389,21.189 3.174,3.87 c -2.875,1.175 -5.387,2.795 -7.468,4.752 l -15.767,-13.989 -5.513,10.566 0.212,-10.154 -24.651,7.875 0.632,13.244 4.194,-1.088 0.62,6.712 c -4.792,-2.152 -10.552,-2.099 -15.894,0.158 -1.583,0.69 -3.059,1.538 -4.419,2.524 0.924,-4.089 0.705,-8.12 -0.853,-11.715 -1.84,-4.248 -5.078,-7.759 -9.048,-9.974 -2.783,-1.854 -6.1,-3.009 -9.571,-3.402 -8.53,-1.491 -18.773,0.04 -28.854,4.335 -3.706,1.581 -7.163,3.375 -10.281,5.361 l -3.941,2.499 2.38,4.019 7.386,12.483 c 0,0 2.26,3.825 2.275,3.823 l 3.994,-1.963 0.557,-0.256 18.353,40.961 1.77,3.937 4.098,-1.32 9.93,-3.181 4.352,-1.383 -1.148,-4.43 -5.274,-20.245 c 1.517,-1.123 2.933,-2.314 4.24,-3.561 -0.295,2.419 -0.14,4.868 0.526,7.212 1.379,4.908 4.593,8.785 9.053,10.933 4.817,2.315 10.694,2.321 16.131,0.015 2.727,-1.157 5.152,-2.845 7.207,-4.854 l 0.749,8.063 17.39,-2.561 -0.027,-15.593 36.337,17.959 0,-17.389 c 1.458,-0.122 2.946,-0.352 4.442,-0.719 4.002,-0.967 7.427,-2.293 10.47,-4.116 l -1.526,9.339 19.592,3.083 1.075,-7.05 5.117,9.453 3.128,-6.027 1.143,9.896 22.213,3.916 -1.178,-7.473 c 3.041,0.344 6.246,-0.064 9.342,-1.232 0.733,-0.271 1.457,-0.601 2.15,-0.955 l -0.885,7.951 14.784,2.086 0.11,6.063 15.416,4.839 20.071,-60.495 -20.9,-5.08 z m -86.793,8.99 1.019,-1.083 -1.231,7.627 -3.211,-2.892 3.423,-3.652 z m -13.018,-31.156 5.382,7.311 -15.387,7.628 -1.063,-1.615 11.068,-13.324 z M 52.32,64.809 58.459,88.364 48.523,91.538 28.134,46.004 c -1.109,0.583 -3.157,1.561 -5.038,2.483 L 15.713,36.015 c 2.936,-1.875 6.156,-3.537 9.581,-4.984 9.612,-4.088 18.783,-5.308 26.118,-4.012 2.595,0.292 5.342,1.057 7.748,2.654 3.301,1.859 5.826,4.505 7.282,7.875 3.551,8.206 -2.381,20.015 -14.122,27.261 z m 45.681,-4.192 c -0.114,3.507 -1.402,7.021 -3.558,9.994 -2.051,2.875 -4.916,5.248 -8.287,6.699 -8.62,3.652 -17.24,0 -19.543,-8.184 -2.231,-7.913 2.96,-17.333 11.312,-20.931 5.334,-2.252 10.686,-1.718 14.52,0.887 2.368,1.606 4.174,4.021 5.017,7.047 0.106,0.321 0.176,0.658 0.247,0.988 0.241,1.153 0.338,2.335 0.292,3.5 z m 46.901,16.653 -36.055,-18.033 0.064,18.894 -9.327,1.272 -0.65,-7.788 c 2.88,-4.938 3.933,-10.757 2.43,-16.093 -0.825,-2.933 -2.349,-5.479 -4.42,-7.519 l -1.338,-15.879 -4.188,1.086 -0.185,-4.015 14.978,-4.46 0.918,15.448 11.034,-15.503 10.787,10.273 -15.085,15.892 14.172,5.606 c 1.583,3 3.998,5.549 7.028,7.427 2.929,1.808 6.285,2.877 9.835,3.228 l 0.002,10.164 0,0 z m -18.721,-26.126 -5.015,-1.935 4.675,-4.544 c -0.2,2.086 -0.097,4.267 0.34,6.479 z m 39.237,4.724 c -3.46,2.862 -7.404,4.728 -12.615,5.987 -1.139,0.261 -2.255,0.451 -3.347,0.547 -8.271,0.813 -15.21,-2.985 -17.843,-9.145 -0.328,-0.746 -0.581,-1.501 -0.772,-2.307 -1.218,-5.188 -0.178,-9.825 2.385,-13.458 0.738,-1.06 1.614,-2.026 2.598,-2.896 2.414,-2.154 5.496,-3.72 9,-4.562 7.879,-1.9 14.818,0.505 19.072,5.725 L 148.882,51.74 c 1.018,0.192 2.637,-0.075 3.832,-0.361 3.576,-0.872 5.577,-2.77 7.34,-4.838 l 6,5.398 1.818,1.642 c -0.788,0.815 -1.616,1.584 -2.454,2.287 z m 31.853,21.327 -3.266,-21.635 -4.619,11.935 -6.916,-14.917 -0.078,0 -2.733,17.275 -11.527,-2.006 1.621,-9.64 c 0.435,-0.409 0.863,-0.819 1.284,-1.252 l 3.736,-3.847 -3.631,-3.252 3.858,-22.957 11.63,0 2.911,15.892 3.262,-18.417 8.319,0 3.452,22.438 c -4.393,5.004 -6.527,11.731 -5.059,17.885 1.135,4.771 4.067,8.613 8.27,10.857 0.423,0.213 0.861,0.424 1.313,0.606 l 0.44,2.909 -12.267,-1.874 z m 28.725,-7.049 c -1.271,0.905 -2.67,1.674 -4.174,2.229 -2.969,1.131 -5.922,1.366 -8.553,0.843 -1.834,-0.362 -3.506,-1.077 -4.961,-2.112 -2.314,-1.674 -4.018,-4.146 -4.769,-7.25 -0.876,-3.729 -0.069,-7.711 1.937,-11.199 1,-1.705 2.283,-3.307 3.801,-4.688 1.693,-1.518 3.656,-2.761 5.84,-3.601 5.083,-1.896 10.096,-1.242 13.625,1.295 1.298,0.92 2.375,2.091 3.224,3.452 0.644,1.075 1.144,2.26 1.447,3.554 1.081,4.478 -0.206,9.274 -3.031,13.138 -1.21,1.647 -2.685,3.127 -4.386,4.339 z m 25.955,20.392 -8.524,-2.539 -0.743,-31.426 -4.287,24.243 -9.299,-1.484 0.666,-6.98 c 6.072,-5.131 9.291,-13.225 7.527,-20.56 -0.775,-3.248 -2.445,-6.076 -4.799,-8.226 l 0.785,-8.232 -3.516,-0.936 0.235,-4.395 16.021,3.22 5.387,25.546 5.525,-22.903 12.188,2.693 -17.166,51.979 z"/>
    </g>
  </g>
</svg>